ffmpeg started on 2016-12-03 at 04:49:52
Report written to "Output/x264/results/ffmpeg/old_town_cross_2160p50placebo3500k.log"
Command line:
Tools/ffmpeg/ffmpeg -benchmark -y -i Input/y4m/old_town_cross_2160p50.y4m -c:v libx264 -preset placebo -b:v 3500k -an Output/x264/encoded/old_town_cross_2160p50placebo3500k.mkv
ffmpeg version N-82227-gdb23fde Copyright (c) 2000-2016 the FFmpeg developers
  built with gcc 5.4.0 (Ubuntu 5.4.0-6ubuntu1~16.04.2) 20160609
  configuration: --prefix=/home/jaroslav/ffmpeg_build --pkg-config-flags=--static --extra-cflags=-I/home/jaroslav/ffmpeg_build/include --extra-ldflags=-L/home/jaroslav/ffmpeg_build/lib --bindir=/home/jaroslav/bin --enable-gpl --enable-libass --enable-libfdk-aac --enable-libfreetype --enable-libmp3lame --enable-libopus --enable-libtheora --enable-libvorbis --enable-libvpx --enable-libx264 --enable-libx265 --enable-nvenc --enable-libmfx --enable-libxvid --enable-libgsm --enable-libopencore-amrnb --enable-version3 --enable-nonfree
  libavutil      55. 35.100 / 55. 35.100
  libavcodec     57. 66.101 / 57. 66.101
  libavformat    57. 57.100 / 57. 57.100
  libavdevice    57.  2.100 / 57.  2.100
  libavfilter     6. 66.100 /  6. 66.100
  libswscale      4.  3.100 /  4.  3.100
  libswresample   2.  4.100 /  2.  4.100
  libpostproc    54.  2.100 / 54.  2.100
Input #0, yuv4mpegpipe, from 'Input/y4m/old_town_cross_2160p50.y4m':
  Duration: 00:00:10.00, start: 0.000000, bitrate: 4976642 kb/s
    Stream #0:0: Video: rawvideo (I420 / 0x30323449), yuv420p(progressive), 3840x2160, SAR 1:1 DAR 16:9, 50 fps, 50 tbr, 50 tbn, 50 tbc
[libx264 @ 0x3446120] using SAR=1/1
[libx264 @ 0x3446120] DPB size (16 frames, 518400 mbs) > level limit (5 frames, 184320 mbs)
[libx264 @ 0x3446120] using cpu capabilities: MMX2 SSE2Fast SSSE3 SSE4.2 AVX FMA3 AVX2 LZCNT BMI2
[libx264 @ 0x3446120] profile High, level 5.2
[libx264 @ 0x3446120] 264 - core 148 - H.264/MPEG-4 AVC codec - Copyleft 2003-2016 - http://www.videolan.org/x264.html - options: cabac=1 ref=16 deblock=1:0:0 analyse=0x3:0x133 me=tesa subme=11 psy=1 psy_rd=1.00:0.00 mixed_ref=1 me_range=24 chroma_me=1 trellis=2 8x8dct=1 cqm=0 deadzone=21,11 fast_pskip=0 chroma_qp_offset=-2 threads=6 lookahead_threads=1 sliced_threads=0 nr=0 decimate=1 interlaced=0 bluray_compat=0 constrained_intra=0 bframes=16 b_pyramid=2 b_adapt=2 b_bias=0 direct=3 weightb=1 open_gop=0 weightp=2 keyint=250 keyint_min=25 scenecut=40 intra_refresh=0 rc_lookahead=60 rc=abr mbtree=1 bitrate=3500 ratetol=1.0 qcomp=0.60 qpmin=0 qpmax=69 qpstep=4 ip_ratio=1.40 aq=1:1.00
Output #0, matroska, to 'Output/x264/encoded/old_town_cross_2160p50placebo3500k.mkv':
  Metadata:
    encoder         : Lavf57.57.100
    Stream #0:0: Video: h264 (libx264) (H264 / 0x34363248), yuv420p, 3840x2160 [SAR 1:1 DAR 16:9], q=-1--1, 3500 kb/s, 50 fps, 1k tbn, 50 tbc
    Metadata:
      encoder         : Lavc57.66.101 libx264
    Side data:
      cpb: bitrate max/min/avg: 0/0/3500000 buffer size: 0 vbv_delay: -1
Stream mapping:
  Stream #0:0 -> #0:0 (rawvideo (native) -> h264 (libx264))
Press [q] to stop, [?] for help
frame=   58 fps=0.0 q=0.0 size=       0kB time=00:00:00.00 bitrate=N/A speed=   0x    frame=   84 fps=3.3 q=0.0 size=       0kB time=00:00:00.00 bitrate=N/A speed=   0x    frame=   89 fps=3.4 q=43.0 size=       1kB time=-00:00:00.01 bitrate=N/A speed=N/A    frame=   90 fps=3.2 q=43.0 size=       1kB time=00:00:00.00 bitrate=5888.0kbits/s speed=3.58e-05x    frame=   91 fps=3.0 q=43.0 size=       1kB time=00:00:00.02 bitrate= 280.4kbits/s speed=0.000696x    frame=   92 fps=3.0 q=43.0 size=       1kB time=00:00:00.04 bitrate= 143.6kbits/s speed=0.00133x    frame=   96 fps=2.9 q=43.0 size=       1kB time=00:00:00.12 bitrate=  48.7kbits/s speed=0.00369x    frame=   97 fps=2.8 q=43.0 size=       1kB time=00:00:00.14 bitrate=  41.8kbits/s speed=0.00407x    frame=   98 fps=2.7 q=49.0 size=       1kB time=00:00:00.16 bitrate=  36.6kbits/s speed=0.0045x    frame=   99 fps=2.5 q=46.0 size=       1kB time=00:00:00.18 bitrate=  32.5kbits/s speed=0.00458x    frame=  104 fps=2.5 q=47.0 size=       1kB time=00:00:00.28 bitrate=  21.0kbits/s speed=0.00669x    frame=  105 fps=2.4 q=47.0 size=       1kB time=00:00:00.30 bitrate=  19.6kbits/s speed=0.0069x    frame=  106 fps=2.3 q=48.0 size=       1kB time=00:00:00.32 bitrate=  18.3kbits/s speed=0.00704x    frame=  109 fps=2.2 q=47.0 size=       1kB time=00:00:00.38 bitrate=  15.5kbits/s speed=0.00774x    frame=  114 fps=2.1 q=48.0 size=       1kB time=00:00:00.48 bitrate=  12.2kbits/s speed=0.00891x    frame=  115 fps=2.1 q=48.0 size=       1kB time=00:00:00.50 bitrate=  11.8kbits/s speed=0.00919x    frame=  116 fps=2.1 q=47.0 size=       1kB time=00:00:00.52 bitrate=  11.3kbits/s speed=0.00943x    frame=  120 fps=2.0 q=46.0 size=       1kB time=00:00:00.60 bitrate=   9.8kbits/s speed=0.0102x    frame=  121 fps=2.0 q=46.0 size=       1kB time=00:00:00.62 bitrate=   9.5kbits/s speed=0.0104x    frame=  122 fps=2.0 q=44.0 size=       1kB time=00:00:00.64 bitrate=   9.2kbits/s speed=0.0105x    frame=  123 fps=2.0 q=45.0 size=       1kB time=00:00:00.66 bitrate=   8.9kbits/s speed=0.0106x    frame=  126 fps=2.0 q=45.0 size=       1kB time=00:00:00.72 bitrate=   8.2kbits/s speed=0.0114x    frame=  127 fps=2.0 q=45.0 size=       1kB time=00:00:00.74 bitrate=   7.9kbits/s speed=0.0116x    frame=  128 fps=1.8 q=45.0 size=       1kB time=00:00:00.76 bitrate=   7.7kbits/s speed=0.0108x    frame=  129 fps=1.8 q=45.0 size=       1kB time=00:00:00.78 bitrate=   7.5kbits/s speed=0.011x    frame=  130 fps=1.8 q=45.0 size=       1kB time=00:00:00.80 bitrate=   7.4kbits/s speed=0.0111x    frame=  134 fps=1.7 q=43.0 size=       1kB time=00:00:00.88 bitrate=   6.7kbits/s speed=0.0113x    frame=  135 fps=1.7 q=44.0 size=       1kB time=00:00:00.90 bitrate=   6.5kbits/s speed=0.0113x    frame=  136 fps=1.7 q=44.0 size=       1kB time=00:00:00.92 bitrate=   6.4kbits/s speed=0.0115x    frame=  137 fps=1.7 q=44.0 size=       1kB time=00:00:00.94 bitrate=   6.3kbits/s speed=0.0116x    frame=  140 fps=1.6 q=44.0 size=       1kB time=00:00:01.00 bitrate=   5.9kbits/s speed=0.0111x    frame=  141 fps=1.5 q=44.0 size=       1kB time=00:00:01.02 bitrate=   5.8kbits/s speed=0.0112x    frame=  142 fps=1.5 q=43.0 size=       1kB time=00:00:01.04 bitrate=   5.7kbits/s speed=0.0113x    frame=  146 fps=1.5 q=43.0 size=       1kB time=00:00:01.12 bitrate=   5.3kbits/s speed=0.0115x    frame=  147 fps=1.5 q=43.0 size=       1kB time=00:00:01.14 bitrate=   5.2kbits/s speed=0.0115x    frame=  148 fps=1.5 q=43.0 size=       1kB time=00:00:01.16 bitrate=   5.1kbits/s speed=0.0115x    frame=  150 fps=1.4 q=43.0 size=       1kB time=00:00:01.20 bitrate=   4.9kbits/s speed=0.0111x    frame=  151 fps=1.4 q=43.0 size=       1kB time=00:00:01.22 bitrate=   4.8kbits/s speed=0.0111x    frame=  152 fps=1.4 q=43.0 size=       1kB time=00:00:01.24 bitrate=   4.7kbits/s speed=0.0112x    frame=  156 fps=1.3 q=43.0 size=       1kB time=00:00:01.32 bitrate=   4.5kbits/s speed=0.0112x    frame=  157 fps=1.3 q=43.0 size=       1kB time=00:00:01.34 bitrate=   4.4kbits/s speed=0.0113x    frame=  158 fps=1.3 q=43.0 size=       1kB time=00:00:01.36 bitrate=   4.3kbits/s speed=0.0114x    frame=  160 fps=1.2 q=43.0 size=       1kB time=00:00:01.40 bitrate=   4.2kbits/s speed=0.0109x    frame=  161 fps=1.2 q=43.0 size=       1kB time=00:00:01.42 bitrate=   4.1kbits/s speed=0.011x    frame=  162 fps=1.2 q=43.0 size=       1kB time=00:00:01.44 bitrate=   4.1kbits/s speed=0.011x    frame=  164 fps=1.2 q=42.0 size=       1kB time=00:00:01.48 bitrate=   4.0kbits/s speed=0.0112x    frame=  166 fps=1.2 q=42.0 size=       1kB time=00:00:01.52 bitrate=   3.9kbits/s speed=0.0108x    frame=  167 fps=1.2 q=42.0 size=       1kB time=00:00:01.54 bitrate=   3.8kbits/s speed=0.0109x    frame=  168 fps=1.2 q=42.0 size=       1kB time=00:00:01.56 bitrate=   3.8kbits/s speed=0.0109x    frame=  169 fps=1.2 q=42.0 size=       1kB time=00:00:01.58 bitrate=   3.7kbits/s speed=0.011x    frame=  170 fps=1.1 q=42.0 size=       1kB time=00:00:01.60 bitrate=   3.7kbits/s speed=0.0106x    frame=  171 fps=1.1 q=42.0 size=       1kB time=00:00:01.62 bitrate=   3.6kbits/s speed=0.0106x    frame=  172 fps=1.1 q=42.0 size=       1kB time=00:00:01.64 bitrate=   3.6kbits/s speed=0.0106x    frame=  174 fps=1.1 q=42.0 size=       1kB time=00:00:01.68 bitrate=   3.5kbits/s speed=0.0108x    frame=  175 fps=1.1 q=42.0 size=       1kB time=00:00:01.70 bitrate=   3.5kbits/s speed=0.0108x    frame=  176 fps=1.1 q=42.0 size=       1kB time=00:00:01.72 bitrate=   3.4kbits/s speed=0.0106x    frame=  177 fps=1.1 q=42.0 size=       1kB time=00:00:01.74 bitrate=   3.4kbits/s speed=0.0106x    frame=  178 fps=1.1 q=42.0 size=       1kB time=00:00:01.76 bitrate=   3.3kbits/s speed=0.0106x    frame=  179 fps=1.1 q=42.0 size=       1kB time=00:00:01.78 bitrate=   3.3kbits/s speed=0.0107x    frame=  180 fps=1.1 q=42.0 size=       1kB time=00:00:01.80 bitrate=   3.3kbits/s speed=0.0107x    frame=  181 fps=1.0 q=42.0 size=       1kB time=00:00:01.82 bitrate=   3.2kbits/s speed=0.0102x    frame=  182 fps=1.0 q=42.0 size=       1kB time=00:00:01.84 bitrate=   3.2kbits/s speed=0.0102x    frame=  183 fps=1.0 q=42.0 size=       1kB time=00:00:01.86 bitrate=   3.2kbits/s speed=0.0103x    frame=  187 fps=1.0 q=42.0 size=       1kB time=00:00:01.94 bitrate=   3.0kbits/s speed=0.0102x    frame=  188 fps=1.0 q=42.0 size=       1kB time=00:00:01.96 bitrate=   3.0kbits/s speed=0.0102x    frame=  189 fps=1.0 q=42.0 size=       1kB time=00:00:01.98 bitrate=   3.0kbits/s speed=0.0102x    frame=  191 fps=1.0 q=42.0 size=       1kB time=00:00:02.02 bitrate=   2.9kbits/s speed=0.0104x    frame=  192 fps=0.9 q=42.0 size=       1kB time=00:00:02.04 bitrate=   2.9kbits/s speed=0.01x    frame=  193 fps=0.9 q=42.0 size=       1kB time=00:00:02.06 bitrate=   2.9kbits/s speed=0.0101x    frame=  194 fps=0.9 q=42.0 size=       1kB time=00:00:02.08 bitrate=   2.8kbits/s speed=0.0101x    frame=  198 fps=0.9 q=41.0 size=       1kB time=00:00:02.16 bitrate=   2.7kbits/s speed=0.0101x    frame=  199 fps=0.9 q=41.0 size=       1kB time=00:00:02.18 bitrate=   2.7kbits/s speed=0.01x    frame=  200 fps=0.9 q=41.0 size=       1kB time=00:00:02.20 bitrate=   2.7kbits/s speed=0.0101x    frame=  201 fps=0.9 q=41.0 size=       1kB time=00:00:02.22 bitrate=   2.7kbits/s speed=0.0101x    frame=  203 fps=0.9 q=41.0 size=       1kB time=00:00:02.26 bitrate=   2.6kbits/s speed=0.00991x    frame=  204 fps=0.9 q=41.0 size=       1kB time=00:00:02.28 bitrate=   2.6kbits/s speed=0.0099x    frame=  205 fps=0.9 q=41.0 size=       1kB time=00:00:02.30 bitrate=   2.6kbits/s speed=0.00994x    frame=  209 fps=0.9 q=41.0 size=       1kB time=00:00:02.38 bitrate=   2.5kbits/s speed=0.01x    frame=  210 fps=0.8 q=41.0 size=       1kB time=00:00:02.40 bitrate=   2.5kbits/s speed=0.00971x    frame=  211 fps=0.8 q=41.0 size=       1kB time=00:00:02.42 bitrate=   2.4kbits/s speed=0.00973x    frame=  212 fps=0.8 q=41.0 size=       1kB time=00:00:02.44 bitrate=   2.4kbits/s speed=0.00976x    frame=  216 fps=0.8 q=41.0 size=       1kB time=00:00:02.52 bitrate=   2.3kbits/s speed=0.00974x    frame=  217 fps=0.8 q=41.0 size=       1kB time=00:00:02.54 bitrate=   2.3kbits/s speed=0.00975x    frame=  218 fps=0.8 q=41.0 size=       1kB time=00:00:02.56 bitrate=   2.3kbits/s speed=0.00973x    frame=  221 fps=0.8 q=41.0 size=       1kB time=00:00:02.62 bitrate=   2.2kbits/s speed=0.00966x    frame=  222 fps=0.8 q=41.0 size=       1kB time=00:00:02.64 bitrate=   2.2kbits/s speed=0.00966x    frame=  223 fps=0.8 q=41.0 size=       1kB time=00:00:02.66 bitrate=   2.2kbits/s speed=0.00967x    frame=  224 fps=0.8 q=41.0 size=       1kB time=00:00:02.68 bitrate=   2.2kbits/s speed=0.0097x    frame=  227 fps=0.8 q=41.0 size=       1kB time=00:00:02.74 bitrate=   2.1kbits/s speed=0.00967x    frame=  228 fps=0.8 q=41.0 size=       1kB time=00:00:02.76 bitrate=   2.1kbits/s speed=0.00966x    frame=  229 fps=0.8 q=41.0 size=       1kB time=00:00:02.78 bitrate=   2.1kbits/s speed=0.00968x    frame=  230 fps=0.8 q=41.0 size=       1kB time=00:00:02.80 bitrate=   2.1kbits/s speed=0.00963x    frame=  232 fps=0.8 q=41.0 size=       1kB time=00:00:02.84 bitrate=   2.1kbits/s speed=0.00952x    frame=  233 fps=0.8 q=41.0 size=       1kB time=00:00:02.86 bitrate=   2.1kbits/s speed=0.00953x    frame=  234 fps=0.8 q=41.0 size=       1kB time=00:00:02.88 bitrate=   2.0kbits/s speed=0.00957x    frame=  235 fps=0.8 q=41.0 size=       1kB time=00:00:02.90 bitrate=   2.0kbits/s speed=0.00961x    frame=  236 fps=0.8 q=41.0 size=       1kB time=00:00:02.92 bitrate=   2.0kbits/s speed=0.00963x    frame=  238 fps=0.8 q=41.0 size=       1kB time=00:00:02.96 bitrate=   2.0kbits/s speed=0.00953x    frame=  239 fps=0.8 q=41.0 size=       1kB time=00:00:02.98 bitrate=   2.0kbits/s speed=0.00952x    frame=  240 fps=0.8 q=41.0 size=       1kB time=00:00:03.00 bitrate=   2.0kbits/s speed=0.00938x    frame=  241 fps=0.8 q=41.0 size=       1kB time=00:00:03.02 bitrate=   1.9kbits/s speed=0.00941x    frame=  242 fps=0.8 q=41.0 size=       1kB time=00:00:03.04 bitrate=   1.9kbits/s speed=0.00944x    frame=  244 fps=0.8 q=41.0 size=       1kB time=00:00:03.08 bitrate=   1.9kbits/s speed=0.00955x    frame=  246 fps=0.7 q=41.0 size=       1kB time=00:00:03.12 bitrate=   1.9kbits/s speed=0.00944x    frame=  247 fps=0.7 q=41.0 size=       1kB time=00:00:03.14 bitrate=   1.9kbits/s speed=0.00942x    frame=  248 fps=0.7 q=41.0 size=       1kB time=00:00:03.16 bitrate=   1.9kbits/s speed=0.00945x    frame=  249 fps=0.7 q=41.0 size=       1kB time=00:00:03.18 bitrate=   1.9kbits/s speed=0.00946x    frame=  251 fps=0.7 q=41.0 size=       1kB time=00:00:03.22 bitrate=   1.8kbits/s speed=0.00933x    frame=  252 fps=0.7 q=41.0 size=       1kB time=00:00:03.24 bitrate=   1.8kbits/s speed=0.00934x    frame=  253 fps=0.7 q=41.0 size=       1kB time=00:00:03.26 bitrate=   1.8kbits/s speed=0.00937x    frame=  254 fps=0.7 q=41.0 size=       1kB time=00:00:03.28 bitrate=   1.8kbits/s speed=0.00941x    frame=  255 fps=0.7 q=41.0 size=       1kB time=00:00:03.30 bitrate=   1.8kbits/s speed=0.00944x    frame=  257 fps=0.7 q=41.0 size=       1kB time=00:00:03.34 bitrate=   1.8kbits/s speed=0.0094x    frame=  258 fps=0.7 q=41.0 size=       1kB time=00:00:03.36 bitrate=   1.8kbits/s speed=0.00938x    frame=  259 fps=0.7 q=41.0 size=       1kB time=00:00:03.38 bitrate=   1.7kbits/s speed=0.00928x    frame=  260 fps=0.7 q=41.0 size=       1kB time=00:00:03.40 bitrate=   1.7kbits/s speed=0.0093x    frame=  261 fps=0.7 q=41.0 size=       1kB time=00:00:03.42 bitrate=   1.7kbits/s speed=0.00933x    frame=  265 fps=0.7 q=40.0 size=       1kB time=00:00:03.50 bitrate=   1.7kbits/s speed=0.00922x    frame=  266 fps=0.7 q=40.0 size=       1kB time=00:00:03.52 bitrate=   1.7kbits/s speed=0.00923x    frame=  267 fps=0.7 q=40.0 size=       1kB time=00:00:03.54 bitrate=   1.7kbits/s speed=0.00926x    frame=  270 fps=0.7 q=40.0 size=       1kB time=00:00:03.60 bitrate=   1.6kbits/s speed=0.00923x    frame=  271 fps=0.7 q=40.0 size=       1kB time=00:00:03.62 bitrate=   1.6kbits/s speed=0.0092x    frame=  272 fps=0.7 q=40.0 size=       1kB time=00:00:03.64 bitrate=   1.6kbits/s speed=0.00923x    frame=  273 fps=0.7 q=40.0 size=       1kB time=00:00:03.66 bitrate=   1.6kbits/s speed=0.00926x    frame=  276 fps=0.7 q=40.0 size=       1kB time=00:00:03.72 bitrate=   1.6kbits/s speed=0.00921x    frame=  277 fps=0.7 q=40.0 size=       1kB time=00:00:03.74 bitrate=   1.6kbits/s speed=0.00915x    frame=  278 fps=0.7 q=40.0 size=       1kB time=00:00:03.76 bitrate=   1.6kbits/s speed=0.00917x    frame=  279 fps=0.7 q=40.0 size=       1kB time=00:00:03.78 bitrate=   1.6kbits/s speed=0.00921x    frame=  282 fps=0.7 q=40.0 size=       1kB time=00:00:03.84 bitrate=   1.5kbits/s speed=0.00921x    frame=  283 fps=0.7 q=40.0 size=       1kB time=00:00:03.86 bitrate=   1.5kbits/s speed=0.00918x    frame=  284 fps=0.7 q=40.0 size=       1kB time=00:00:03.88 bitrate=   1.5kbits/s speed=0.00909x    frame=  285 fps=0.7 q=40.0 size=       1kB time=00:00:03.90 bitrate=   1.5kbits/s speed=0.00911x    frame=  286 fps=0.7 q=40.0 size=       1kB time=00:00:03.92 bitrate=   1.5kbits/s speed=0.00912x    frame=  290 fps=0.7 q=40.0 size=       1kB time=00:00:04.00 bitrate=   1.5kbits/s speed=0.00906x    frame=  291 fps=0.7 q=40.0 size=       1kB time=00:00:04.02 bitrate=   1.5kbits/s speed=0.00909x    frame=  292 fps=0.7 q=40.0 size=       1kB time=00:00:04.04 bitrate=   1.5kbits/s speed=0.00912x    frame=  293 fps=0.7 q=40.0 size=       1kB time=00:00:04.06 bitrate=   1.4kbits/s speed=0.00915x    frame=  296 fps=0.7 q=40.0 size=       1kB time=00:00:04.12 bitrate=   1.4kbits/s speed=0.0091x    frame=  297 fps=0.6 q=40.0 size=       1kB time=00:00:04.14 bitrate=   1.4kbits/s speed=0.009x    frame=  298 fps=0.6 q=40.0 size=       1kB time=00:00:04.16 bitrate=   1.4kbits/s speed=0.00901x    frame=  299 fps=0.6 q=40.0 size=       1kB time=00:00:04.18 bitrate=   1.4kbits/s speed=0.00903x    frame=  303 fps=0.6 q=40.0 size=       1kB time=00:00:04.26 bitrate=   1.4kbits/s speed=0.00901x    frame=  304 fps=0.6 q=40.0 size=       1kB time=00:00:04.28 bitrate=   1.4kbits/s speed=0.00902x    frame=  306 fps=0.6 q=40.0 size=       1kB time=00:00:04.32 bitrate=   1.4kbits/s speed=0.00909x    frame=  307 fps=0.6 q=40.0 size=       1kB time=00:00:04.34 bitrate=   1.4kbits/s speed=0.00895x    frame=  308 fps=0.6 q=40.0 size=       1kB time=00:00:04.36 bitrate=   1.4kbits/s speed=0.00897x    frame=  309 fps=0.6 q=40.0 size=       1kB time=00:00:04.38 bitrate=   1.3kbits/s speed=0.00899x    frame=  310 fps=0.6 q=40.0 size=       1kB time=00:00:04.40 bitrate=   1.3kbits/s speed=0.00899x    frame=  313 fps=0.6 q=40.0 size=       1kB time=00:00:04.46 bitrate=   1.3kbits/s speed=0.00898x    frame=  314 fps=0.6 q=40.0 size=       1kB time=00:00:04.48 bitrate=   1.3kbits/s speed=0.00901x    frame=  315 fps=0.6 q=40.0 size=       1kB time=00:00:04.50 bitrate=   1.3kbits/s speed=0.00901x    frame=  316 fps=0.6 q=40.0 size=       1kB time=00:00:04.52 bitrate=   1.3kbits/s speed=0.009x    frame=  317 fps=0.6 q=40.0 size=       1kB time=00:00:04.54 bitrate=   1.3kbits/s speed=0.00901x    frame=  319 fps=0.6 q=40.0 size=       1kB time=00:00:04.58 bitrate=   1.3kbits/s speed=0.00887x    frame=  320 fps=0.6 q=40.0 size=       1kB time=00:00:04.60 bitrate=   1.3kbits/s speed=0.00889x    frame=  321 fps=0.6 q=40.0 size=       1kB time=00:00:04.62 bitrate=   1.3kbits/s speed=0.0089x    frame=  325 fps=0.6 q=40.0 size=       1kB time=00:00:04.70 bitrate=   1.3kbits/s speed=0.00891x    frame=  326 fps=0.6 q=40.0 size=       1kB time=00:00:04.72 bitrate=   1.2kbits/s speed=0.0089x    frame=  328 fps=0.6 q=40.0 size=       1kB time=00:00:04.76 bitrate=   1.2kbits/s speed=0.00896x    frame=  329 fps=0.6 q=40.0 size=       1kB time=00:00:04.78 bitrate=   1.2kbits/s speed=0.00884x    frame=  330 fps=0.6 q=40.0 size=       1kB time=00:00:04.80 bitrate=   1.2kbits/s speed=0.00886x    frame=  331 fps=0.6 q=40.0 size=       1kB time=00:00:04.82 bitrate=   1.2kbits/s speed=0.00888x    frame=  332 fps=0.6 q=37.0 size=       1kB time=00:00:04.84 bitrate=   1.2kbits/s speed=0.00889x    frame=  334 fps=0.6 q=41.0 size=       1kB time=00:00:04.88 bitrate=   1.2kbits/s speed=0.00896x    frame=  335 fps=0.6 q=41.0 size=       1kB time=00:00:04.90 bitrate=   1.2kbits/s speed=0.0089x    frame=  336 fps=0.6 q=41.0 size=       1kB time=00:00:04.92 bitrate=   1.2kbits/s speed=0.00892x    frame=  337 fps=0.6 q=41.0 size=    1858kB time=00:00:04.94 bitrate=3080.7kbits/s speed=0.00895x    frame=  341 fps=0.6 q=41.0 size=    1858kB time=00:00:05.02 bitrate=3031.6kbits/s speed=0.00906x    frame=  342 fps=0.6 q=41.0 size=    1858kB time=00:00:05.04 bitrate=3019.6kbits/s speed=0.00906x    frame=  343 fps=0.6 q=41.0 size=    1858kB time=00:00:05.06 bitrate=3007.7kbits/s speed=0.00907x    frame=  347 fps=0.6 q=41.0 size=    1858kB time=00:00:05.14 bitrate=2960.9kbits/s speed=0.00919x    frame=  348 fps=0.6 q=41.0 size=    1858kB time=00:00:05.16 bitrate=2949.4kbits/s speed=0.0092x    frame=  349 fps=0.6 q=41.0 size=    1858kB time=00:00:05.18 bitrate=2938.0kbits/s speed=0.0092x    frame=  350 fps=0.6 q=41.0 size=    1858kB time=00:00:05.20 bitrate=2926.7kbits/s speed=0.00922x    frame=  351 fps=0.6 q=41.0 size=    1858kB time=00:00:05.22 bitrate=2915.5kbits/s speed=0.00924x    frame=  354 fps=0.6 q=41.0 size=    1858kB time=00:00:05.28 bitrate=2882.4kbits/s speed=0.00931x    frame=  355 fps=0.6 q=41.0 size=    1858kB time=00:00:05.30 bitrate=2871.5kbits/s speed=0.0093x    frame=  356 fps=0.6 q=41.0 size=    1858kB time=00:00:05.32 bitrate=2860.7kbits/s speed=0.00932x    frame=  357 fps=0.6 q=41.0 size=    1858kB time=00:00:05.34 bitrate=2850.0kbits/s speed=0.00933x    frame=  359 fps=0.6 q=41.0 size=    1858kB time=00:00:05.38 bitrate=2828.8kbits/s speed=0.00936x    frame=  360 fps=0.6 q=41.0 size=    1858kB time=00:00:05.40 bitrate=2818.3kbits/s speed=0.00937x    frame=  361 fps=0.6 q=41.0 size=    1858kB time=00:00:05.42 bitrate=2807.9kbits/s speed=0.00936x    frame=  362 fps=0.6 q=41.0 size=    1858kB time=00:00:05.44 bitrate=2797.6kbits/s speed=0.00938x    frame=  363 fps=0.6 q=41.0 size=    1858kB time=00:00:05.46 bitrate=2787.4kbits/s speed=0.00939x    frame=  364 fps=0.6 q=41.0 size=    1858kB time=00:00:05.48 bitrate=2777.2kbits/s speed=0.00942x    frame=  365 fps=0.6 q=41.0 size=    1858kB time=00:00:05.50 bitrate=2767.1kbits/s speed=0.00944x    frame=  366 fps=0.6 q=41.0 size=    1858kB time=00:00:05.52 bitrate=2757.1kbits/s speed=0.00945x    frame=  367 fps=0.6 q=41.0 size=    1858kB time=00:00:05.54 bitrate=2747.1kbits/s speed=0.00945x    frame=  368 fps=0.6 q=41.0 size=    1858kB time=00:00:05.56 bitrate=2737.2kbits/s speed=0.00946x    frame=  369 fps=0.6 q=41.0 size=    1858kB time=00:00:05.58 bitrate=2727.4kbits/s speed=0.00946x    frame=  371 fps=0.6 q=41.0 size=    1858kB time=00:00:05.62 bitrate=2708.0kbits/s speed=0.0095x    frame=  372 fps=0.6 q=41.0 size=    1858kB time=00:00:05.64 bitrate=2698.4kbits/s speed=0.0095x    frame=  373 fps=0.6 q=41.0 size=    1858kB time=00:00:05.66 bitrate=2688.9kbits/s speed=0.0095x    frame=  374 fps=0.6 q=41.0 size=    1858kB time=00:00:05.68 bitrate=2679.4kbits/s speed=0.00945x    frame=  375 fps=0.6 q=41.0 size=    1858kB time=00:00:05.70 bitrate=2670.0kbits/s speed=0.00948x    frame=  376 fps=0.6 q=41.0 size=    1858kB time=00:00:05.72 bitrate=2660.7kbits/s speed=0.0095x    frame=  380 fps=0.6 q=41.0 size=    1858kB time=00:00:05.80 bitrate=2624.0kbits/s speed=0.00951x    frame=  382 fps=0.6 q=41.0 size=    1858kB time=00:00:05.84 bitrate=2606.0kbits/s speed=0.00957x    frame=  385 fps=0.6 q=41.0 size=    1858kB time=00:00:05.90 bitrate=2579.5kbits/s speed=0.00966x    frame=  386 fps=0.6 q=41.0 size=    1858kB time=00:00:05.92 bitrate=2570.8kbits/s speed=0.00955x    frame=  388 fps=0.6 q=41.0 size=    1858kB time=00:00:05.96 bitrate=2553.6kbits/s speed=0.0096x    frame=  389 fps=0.6 q=41.0 size=    1858kB time=00:00:05.98 bitrate=2545.0kbits/s speed=0.00955x    frame=  390 fps=0.6 q=41.0 size=    1858kB time=00:00:06.00 bitrate=2536.5kbits/s speed=0.00957x    frame=  391 fps=0.6 q=41.0 size=    1858kB time=00:00:06.02 bitrate=2528.1kbits/s speed=0.00958x    frame=  392 fps=0.6 q=41.0 size=    1858kB time=00:00:06.04 bitrate=2519.7kbits/s speed=0.0096x    frame=  394 fps=0.6 q=41.0 size=    1858kB time=00:00:06.08 bitrate=2503.2kbits/s speed=0.00962x    frame=  395 fps=0.6 q=41.0 size=    1858kB time=00:00:06.10 bitrate=2495.0kbits/s speed=0.00955x    frame=  396 fps=0.6 q=41.0 size=    1858kB time=00:00:06.12 bitrate=2486.8kbits/s speed=0.00956x    frame=  397 fps=0.6 q=41.0 size=    1858kB time=00:00:06.14 bitrate=2478.7kbits/s speed=0.00957x    frame=  398 fps=0.6 q=41.0 size=    1858kB time=00:00:06.16 bitrate=2470.7kbits/s speed=0.00959x    frame=  400 fps=0.6 q=41.0 size=    1858kB time=00:00:06.20 bitrate=2454.7kbits/s speed=0.00963x    frame=  401 fps=0.6 q=41.0 size=    1858kB time=00:00:06.22 bitrate=2446.8kbits/s speed=0.00958x    frame=  402 fps=0.6 q=41.0 size=    1858kB time=00:00:06.24 bitrate=2439.0kbits/s speed=0.0096x    frame=  403 fps=0.6 q=41.0 size=    1858kB time=00:00:06.26 bitrate=2431.2kbits/s speed=0.00954x    frame=  404 fps=0.6 q=41.0 size=    1858kB time=00:00:06.28 bitrate=2423.5kbits/s speed=0.00956x    frame=  405 fps=0.6 q=41.0 size=    1858kB time=00:00:06.30 bitrate=2415.8kbits/s speed=0.00957x    frame=  409 fps=0.6 q=41.0 size=    1858kB time=00:00:06.38 bitrate=2385.5kbits/s speed=0.00951x    frame=  411 fps=0.6 q=41.0 size=    1858kB time=00:00:06.42 bitrate=2370.6kbits/s speed=0.00956x    frame=  414 fps=0.6 q=41.0 size=    1858kB time=00:00:06.48 bitrate=2348.7kbits/s speed=0.00964x    frame=  415 fps=0.6 q=41.0 size=    1858kB time=00:00:06.50 bitrate=2341.5kbits/s speed=0.00955x    frame=  416 fps=0.6 q=41.0 size=    1858kB time=00:00:06.52 bitrate=2334.3kbits/s speed=0.00948x    frame=  417 fps=0.6 q=41.0 size=    1858kB time=00:00:06.54 bitrate=2327.1kbits/s speed=0.00949x    frame=  418 fps=0.6 q=41.0 size=    1858kB time=00:00:06.56 bitrate=2320.0kbits/s speed=0.0095x    frame=  421 fps=0.6 q=41.0 size=    1858kB time=00:00:06.62 bitrate=2299.0kbits/s speed=0.00957x    frame=  422 fps=0.6 q=41.0 size=    1858kB time=00:00:06.64 bitrate=2292.1kbits/s speed=0.00946x    frame=  423 fps=0.6 q=41.0 size=    1858kB time=00:00:06.66 bitrate=2285.2kbits/s speed=0.00948x    frame=  425 fps=0.6 q=41.0 size=    1858kB time=00:00:06.70 bitrate=2271.6kbits/s speed=0.00953x    frame=  426 fps=0.6 q=41.0 size=    1858kB time=00:00:06.72 bitrate=2264.8kbits/s speed=0.00955x    frame=  427 fps=0.6 q=41.0 size=    1858kB time=00:00:06.74 bitrate=2258.1kbits/s speed=0.00944x    frame=  428 fps=0.6 q=41.0 size=    1858kB time=00:00:06.76 bitrate=2251.4kbits/s speed=0.00943x    frame=  429 fps=0.6 q=41.0 size=    1858kB time=00:00:06.78 bitrate=2244.8kbits/s speed=0.00944x    frame=  433 fps=0.6 q=40.0 size=    1858kB time=00:00:06.86 bitrate=2218.6kbits/s speed=0.00944x    frame=  434 fps=0.6 q=41.0 size=    1858kB time=00:00:06.88 bitrate=2212.2kbits/s speed=0.00944x    frame=  435 fps=0.6 q=41.0 size=    1858kB time=00:00:06.90 bitrate=2205.7kbits/s speed=0.00945x    frame=  436 fps=0.6 q=41.0 size=    1858kB time=00:00:06.92 bitrate=2199.4kbits/s speed=0.00946x    frame=  437 fps=0.6 q=40.0 size=    1858kB time=00:00:06.94 bitrate=2193.0kbits/s speed=0.00946x    frame=  438 fps=0.6 q=40.0 size=    1858kB time=00:00:06.96 bitrate=2186.7kbits/s speed=0.00937x    frame=  439 fps=0.6 q=40.0 size=    1858kB time=00:00:06.98 bitrate=2180.5kbits/s speed=0.00938x    frame=  440 fps=0.6 q=40.0 size=    1858kB time=00:00:07.00 bitrate=2174.2kbits/s speed=0.00939x    frame=  443 fps=0.6 q=40.0 size=    1858kB time=00:00:07.06 bitrate=2155.8kbits/s speed=0.00945x    frame=  444 fps=0.6 q=40.0 size=    1858kB time=00:00:07.08 bitrate=2149.7kbits/s speed=0.00937x    frame=  445 fps=0.6 q=40.0 size=    1858kB time=00:00:07.10 bitrate=2143.6kbits/s speed=0.00939x    frame=  446 fps=0.6 q=40.0 size=    1858kB time=00:00:07.12 bitrate=2137.6kbits/s speed=0.00938x    frame=  448 fps=0.6 q=40.0 size=    1858kB time=00:00:07.16 bitrate=2125.7kbits/s speed=0.00932x    frame=  449 fps=0.6 q=40.0 size=    1858kB time=00:00:07.18 bitrate=2119.7kbits/s speed=0.00933x    frame=  450 fps=0.6 q=40.0 size=    1858kB time=00:00:07.20 bitrate=2113.8kbits/s speed=0.00934x    frame=  452 fps=0.6 q=40.0 size=    1858kB time=00:00:07.24 bitrate=2102.2kbits/s speed=0.00937x    frame=  454 fps=0.6 q=40.0 size=    1858kB time=00:00:07.28 bitrate=2090.6kbits/s speed=0.00933x    frame=  455 fps=0.6 q=40.0 size=    1858kB time=00:00:07.30 bitrate=2084.9kbits/s speed=0.00934x    frame=  456 fps=0.6 q=40.0 size=    1858kB time=00:00:07.32 bitrate=2079.2kbits/s speed=0.00935x    frame=  458 fps=0.6 q=40.0 size=    1858kB time=00:00:07.36 bitrate=2067.9kbits/s speed=0.00927x    frame=  459 fps=0.6 q=40.0 size=    1858kB time=00:00:07.38 bitrate=2062.3kbits/s speed=0.00928x    frame=  460 fps=0.6 q=40.0 size=    1858kB time=00:00:07.40 bitrate=2056.7kbits/s speed=0.00929x    frame=  462 fps=0.6 q=41.0 size=    1858kB time=00:00:07.44 bitrate=2045.7kbits/s speed=0.00933x    frame=  463 fps=0.6 q=40.0 size=    1858kB time=00:00:07.46 bitrate=2040.2kbits/s speed=0.00934x    frame=  464 fps=0.6 q=40.0 size=    1858kB time=00:00:07.48 bitrate=2034.7kbits/s speed=0.00928x    frame=  465 fps=0.6 q=40.0 size=    1858kB time=00:00:07.50 bitrate=2029.3kbits/s speed=0.00929x    frame=  466 fps=0.6 q=40.0 size=    1858kB time=00:00:07.52 bitrate=2023.9kbits/s speed=0.0093x    frame=  468 fps=0.6 q=40.0 size=    1858kB time=00:00:07.56 bitrate=2013.2kbits/s speed=0.00924x    frame=  469 fps=0.6 q=40.0 size=    1858kB time=00:00:07.58 bitrate=2007.9kbits/s speed=0.00925x    frame=  470 fps=0.6 q=41.0 size=    1858kB time=00:00:07.60 bitrate=2002.6kbits/s speed=0.00927x    frame=  474 fps=0.6 q=41.0 size=    1858kB time=00:00:07.68 bitrate=1981.7kbits/s speed=0.00921x    frame=  475 fps=0.6 q=41.0 size=    1858kB time=00:00:07.70 bitrate=1976.6kbits/s speed=0.00922x    frame=  476 fps=0.6 q=41.0 size=    1858kB time=00:00:07.72 bitrate=1971.5kbits/s speed=0.00923x    frame=  477 fps=0.6 q=41.0 size=    1858kB time=00:00:07.74 bitrate=1966.4kbits/s speed=0.00925x    frame=  479 fps=0.6 q=41.0 size=    1858kB time=00:00:07.78 bitrate=1956.3kbits/s speed=0.00929x    frame=  480 fps=0.6 q=41.0 size=    1858kB time=00:00:07.80 bitrate=1951.3kbits/s speed=0.00917x    frame=  481 fps=0.6 q=41.0 size=    1858kB time=00:00:07.82 bitrate=1946.3kbits/s speed=0.00918x    frame=  482 fps=0.6 q=41.0 size=    1858kB time=00:00:07.84 bitrate=1941.3kbits/s speed=0.00919x    frame=  486 fps=0.6 q=41.0 size=    1858kB time=00:00:07.92 bitrate=1921.7kbits/s speed=0.00915x    frame=  487 fps=0.6 q=41.0 size=    1858kB time=00:00:07.94 bitrate=1916.9kbits/s speed=0.00915x    frame=  488 fps=0.6 q=41.0 size=    1858kB time=00:00:07.96 bitrate=1912.0kbits/s speed=0.00917x    frame=  492 fps=0.6 q=41.0 size=    1858kB time=00:00:08.04 bitrate=1893.0kbits/s speed=0.00917x    frame=  493 fps=0.6 q=41.0 size=    1858kB time=00:00:08.06 bitrate=1888.3kbits/s speed=0.00916x    frame=  495 fps=0.6 q=41.0 size=    1858kB time=00:00:08.10 bitrate=1879.0kbits/s speed=0.00913x    frame=  496 fps=0.6 q=41.0 size=    1858kB time=00:00:08.12 bitrate=1874.4kbits/s speed=0.00914x    frame=  497 fps=0.6 q=41.0 size=    1858kB time=00:00:08.14 bitrate=1869.8kbits/s speed=0.00915x    frame=  499 fps=0.6 q=41.0 size=    1858kB time=00:00:08.18 bitrate=1860.6kbits/s speed=0.00919x    frame=  500 fps=0.6 q=41.0 size=    1858kB time=00:00:08.20 bitrate=1856.1kbits/s speed=0.0092x    frame=  500 fps=0.6 q=41.0 size=    1858kB time=00:00:08.20 bitrate=1856.1kbits/s speed=0.00907x    frame=  500 fps=0.5 q=-1.0 Lsize=    4204kB time=00:00:09.94 bitrate=3464.7kbits/s speed=0.00899x    
video:4200kB audio:0kB subtitle:0kB other streams:0kB global headers:0kB muxing overhead: 0.102538%
bench: utime=4277.592s
bench: maxrss=6471212kB
[libx264 @ 0x3446120] frame I:3     Avg QP:37.86  size:137373
[libx264 @ 0x3446120] frame P:45    Avg QP:40.20  size: 24796
[libx264 @ 0x3446120] frame B:452   Avg QP:41.61  size:  6133
[libx264 @ 0x3446120] consecutive B-frames:  0.6%  0.0%  0.0%  0.0%  0.0%  0.0%  1.4%  3.2%  7.2% 30.0% 19.8%  9.6%  5.2% 14.0%  9.0%  0.0%  0.0%
[libx264 @ 0x3446120] mb I  I16..4: 40.9% 51.1%  8.0%
[libx264 @ 0x3446120] mb P  I16..4:  0.2%  1.3%  0.1%  P16..4: 26.5% 15.4%  2.6%  0.1%  0.0%    skip:53.9%
[libx264 @ 0x3446120] mb B  I16..4:  0.0%  0.0%  0.0%  B16..8: 22.1%  0.9%  0.0%  direct: 0.0%  skip:77.0%  L0:46.9% L1:53.1% BI: 0.0%
[libx264 @ 0x3446120] final ratefactor: 33.04
[libx264 @ 0x3446120] 8x8 transform intra:57.2% inter:87.7%
[libx264 @ 0x3446120] direct mvs  spatial:98.7% temporal:1.3%
[libx264 @ 0x3446120] coded y,uvDC,uvAC intra: 31.7% 23.1% 4.9% inter: 0.2% 0.2% 0.0%
[libx264 @ 0x3446120] i16 v,h,dc,p:  7% 24%  1% 68%
[libx264 @ 0x3446120] i8 v,h,dc,ddl,ddr,vr,hd,vl,hu:  1%  1% 35% 10% 16%  9% 14%  5%  9%
[libx264 @ 0x3446120] i4 v,h,dc,ddl,ddr,vr,hd,vl,hu:  2%  2% 25% 14% 16%  9% 15%  6% 12%
[libx264 @ 0x3446120] i8c dc,h,v,p: 25% 60%  8%  7%
[libx264 @ 0x3446120] Weighted P-Frames: Y:4.4% UV:2.2%
[libx264 @ 0x3446120] ref P L0: 66.0% 21.7%  7.1%  1.3%  0.7%  1.1%  0.6%  0.2%  0.1%  0.2%  0.1%  0.2%  0.1%  0.2%  0.2%  0.1%
[libx264 @ 0x3446120] ref B L0: 97.6%  1.6%  0.5%  0.1%  0.1%  0.0%  0.0%  0.0%  0.0%  0.0%  0.0%  0.0%  0.0%  0.0%  0.0%
[libx264 @ 0x3446120] ref B L1: 98.7%  1.3%
[libx264 @ 0x3446120] kb/s:3440.13
